<svg width="299" height="40" viewBox="0 0 299 40" fill="none" xmlns="http://www.w3.org/2000/svg">
<g clip-path="url(#clip0_147_40)">
<g filter="url(#filter0_i_147_40)">
<path d="M289.5 8H9.5C4.25329 8 0 12.2533 0 17.5C0 22.7467 4.25329 27 9.5 27H289.5C294.747 27 299 22.7467 299 17.5C299 12.2533 294.747 8 289.5 8Z" fill="url(#paint0_linear_147_40)"/>
</g>
<g filter="url(#filter1_d_147_40)">
<path d="M159 32C166.732 32 173 25.732 173 18C173 10.268 166.732 4 159 4C151.268 4 145 10.268 145 18C145 25.732 151.268 32 159 32Z" fill="#F2F2F2"/>
</g>
</g>
<defs>
<filter id="filter0_i_147_40" x="0" y="8" width="302" height="23" filterUnits="userSpaceOnUse" color-interpolation-filters="sRGB">
<feFlood flood-opacity="0" result="BackgroundImageFix"/>
<feBlend mode="normal" in="SourceGraphic" in2="BackgroundImageFix" result="shape"/>
<feColorMatrix in="SourceAlpha" type="matrix" values="0 0 0 0 0 0 0 0 0 0 0 0 0 0 0 0 0 0 127 0" result="hardAlpha"/>
<feOffset dx="3" dy="4"/>
<feGaussianBlur stdDeviation="4"/>
<feComposite in2="hardAlpha" operator="arithmetic" k2="-1" k3="1"/>
<feColorMatrix type="matrix" values="0 0 0 0 0 0 0 0 0 0 0 0 0 0 0 0 0 0 0.34 0"/>
<feBlend mode="normal" in2="shape" result="effect1_innerShadow_147_40"/>
</filter>
<filter id="filter1_d_147_40" x="139" y="2" width="40" height="40" filterUnits="userSpaceOnUse" color-interpolation-filters="sRGB">
<feFlood flood-opacity="0" result="BackgroundImageFix"/>
<feColorMatrix in="SourceAlpha" type="matrix" values="0 0 0 0 0 0 0 0 0 0 0 0 0 0 0 0 0 0 127 0" result="hardAlpha"/>
<feOffset dy="4"/>
<feGaussianBlur stdDeviation="3"/>
<feComposite in2="hardAlpha" operator="out"/>
<feColorMatrix type="matrix" values="0 0 0 0 0 0 0 0 0 0 0 0 0 0 0 0 0 0 0.34 0"/>
<feBlend mode="normal" in2="BackgroundImageFix" result="effect1_dropShadow_147_40"/>
<feBlend mode="normal" in="SourceGraphic" in2="effect1_dropShadow_147_40" result="shape"/>
</filter>
<linearGradient id="paint0_linear_147_40" x1="0" y1="17.5" x2="299" y2="17.5" gradientUnits="userSpaceOnUse">
<stop stop-color="white"/>
<stop offset="1" stop-color="#FFEB10"/>
</linearGradient>
<clipPath id="clip0_147_40">
<rect width="299" height="40" fill="white"/>
</clipPath>
</defs>
</svg>
