<svg width="288" height="113" viewBox="0 0 288 113" fill="none" xmlns="http://www.w3.org/2000/svg">
<g filter="url(#filter0_d_24_49)">
<rect x="9" y="9" width="262" height="73.5421" rx="30" fill="#3182F6"/>
<path d="M46.8027 49.2666H44.8428V45.751H46.8027V49.2666ZM53.8516 49.7061H51.9004V37.6914H53.8516V49.7061ZM54.2207 53.2656H42.5664V51.666H54.2207V53.2656ZM44.5264 52.0967H42.5664V48.5459H44.5264V52.0967ZM40.457 44.8369C42.6309 44.8193 44.5117 44.7842 46.0996 44.7314C47.6934 44.6729 49.2285 44.5498 50.7051 44.3623L50.8105 45.7686C49.2695 46.0205 47.6523 46.1904 45.959 46.2783C44.2656 46.3604 42.5107 46.3984 40.6943 46.3926L40.457 44.8369ZM52.3574 48.3174H48.7715V46.9639H52.3574V48.3174ZM45.6338 38.2715C46.4014 38.2656 47.084 38.3799 47.6816 38.6143C48.2793 38.8486 48.7451 39.1826 49.0791 39.6162C49.4189 40.0439 49.5889 40.5332 49.5889 41.084C49.5889 41.6465 49.4189 42.1357 49.0791 42.5518C48.7451 42.9678 48.2793 43.293 47.6816 43.5273C47.0898 43.7559 46.4072 43.8701 45.6338 43.8701C44.8604 43.8701 44.1719 43.7559 43.5684 43.5273C42.9707 43.293 42.5049 42.9678 42.1709 42.5518C41.8369 42.1357 41.6699 41.6465 41.6699 41.084C41.6699 40.5332 41.8369 40.0439 42.1709 39.6162C42.5049 39.1826 42.9707 38.8486 43.5684 38.6143C44.1719 38.3799 44.8604 38.2656 45.6338 38.2715ZM45.6338 39.7129C45.2178 39.707 44.8486 39.7598 44.5264 39.8711C44.2041 39.9766 43.9551 40.1348 43.7793 40.3457C43.6094 40.5566 43.5244 40.8027 43.5244 41.084C43.5244 41.3594 43.6094 41.6025 43.7793 41.8135C43.9551 42.0244 44.2041 42.1855 44.5264 42.2969C44.8486 42.4023 45.2178 42.4551 45.6338 42.4551C46.0439 42.4551 46.4072 42.4023 46.7236 42.2969C47.04 42.1855 47.2861 42.0244 47.4619 41.8135C47.6377 41.6025 47.7256 41.3594 47.7256 41.084C47.7256 40.8027 47.6348 40.5566 47.4531 40.3457C47.2773 40.1348 47.0312 39.9766 46.7148 39.8711C46.4043 39.7598 46.0439 39.707 45.6338 39.7129ZM68.5293 53.5469H66.5957V37.6738H68.5293V53.5469ZM70.9814 45.6191H68.0898V44.0107H70.9814V45.6191ZM65.3652 41.6816H56.0049V40.1084H65.3652V41.6816ZM60.7334 42.71C61.501 42.71 62.1865 42.8711 62.79 43.1934C63.3994 43.5098 63.877 43.9521 64.2227 44.5205C64.5684 45.0889 64.7412 45.7334 64.7412 46.4541C64.7412 47.1689 64.5684 47.8135 64.2227 48.3877C63.877 48.9561 63.3994 49.3984 62.79 49.7148C62.1865 50.0312 61.501 50.1895 60.7334 50.1895C59.9717 50.1895 59.2861 50.0312 58.6768 49.7148C58.0674 49.3984 57.5898 48.9561 57.2441 48.3877C56.9043 47.8135 56.7344 47.1689 56.7344 46.4541C56.7344 45.7334 56.9043 45.0889 57.2441 44.5205C57.5898 43.9521 58.0674 43.5098 58.6768 43.1934C59.2861 42.8711 59.9717 42.71 60.7334 42.71ZM60.7334 44.3184C60.3291 44.3184 59.9629 44.4062 59.6348 44.582C59.3125 44.7578 59.0576 45.0068 58.8701 45.3291C58.6885 45.6514 58.5977 46.0264 58.5977 46.4541C58.5977 46.876 58.6885 47.248 58.8701 47.5703C59.0576 47.8926 59.3125 48.1416 59.6348 48.3174C59.9629 48.4873 60.3291 48.5723 60.7334 48.5723C61.1494 48.5723 61.5186 48.4873 61.8408 48.3174C62.1631 48.1416 62.415 47.8926 62.5967 47.5703C62.7783 47.248 62.8691 46.876 62.8691 46.4541C62.8691 46.0264 62.7783 45.6514 62.5967 45.3291C62.415 45.0068 62.1631 44.7578 61.8408 44.582C61.5186 44.4062 61.1494 44.3184 60.7334 44.3184ZM61.7002 40.7412H59.7578V37.9023H61.7002V40.7412ZM84.5166 43.7119H73.4951V42.1738H84.5166V43.7119ZM86.1514 47.1045H71.6318V45.5576H86.1514V47.1045ZM75.4463 42.9473H73.4951V38.2539H75.4463V42.9473ZM84.6133 53.1865H73.3633V51.6045H84.6133V53.1865ZM75.332 52.0527H73.3633V48.5195H75.332V52.0527ZM97.085 42.1738C97.085 43.3691 96.8975 44.5234 96.5225 45.6367C96.1533 46.7441 95.626 47.7314 94.9404 48.5986C94.2549 49.46 93.4551 50.1074 92.541 50.541L91.4072 49.0029C92.2217 48.6221 92.9395 48.0684 93.5605 47.3418C94.1816 46.6152 94.6592 45.8037 94.9932 44.9072C95.3271 44.0049 95.4941 43.0938 95.4941 42.1738V40.082H97.085V42.1738ZM97.4805 42.1738C97.4805 43.0586 97.6445 43.9258 97.9727 44.7754C98.3066 45.625 98.7812 46.3896 99.3965 47.0693C100.018 47.7432 100.741 48.2559 101.567 48.6074L100.504 50.1455C99.5664 49.7295 98.752 49.1172 98.0605 48.3086C97.3691 47.5 96.8418 46.5684 96.4785 45.5137C96.1152 44.4531 95.9336 43.3398 95.9336 42.1738V40.082H97.4805V42.1738ZM100.961 40.8467H92.0049V39.2471H100.961V40.8467ZM104.705 53.5469H102.728V37.6738H104.705V53.5469ZM118.987 41.4707H114.224V39.8711H118.987V41.4707ZM118.987 44.9512H114.224V43.3779H118.987V44.9512ZM120.35 53.5469H118.398V49.3721H109.521V47.8164H120.35V53.5469ZM120.35 47.0518H118.398V37.6738H120.35V47.0518ZM111.455 38.5439C112.234 38.5439 112.94 38.708 113.573 39.0361C114.212 39.3643 114.713 39.8242 115.076 40.416C115.439 41.002 115.621 41.6641 115.621 42.4023C115.621 43.1523 115.439 43.8232 115.076 44.415C114.713 45.001 114.212 45.4609 113.573 45.7949C112.94 46.1289 112.234 46.2959 111.455 46.2959C110.664 46.2959 109.949 46.1289 109.311 45.7949C108.672 45.4609 108.171 45.001 107.808 44.415C107.444 43.8232 107.263 43.1523 107.263 42.4023C107.263 41.6641 107.444 41.002 107.808 40.416C108.171 39.8242 108.672 39.3643 109.311 39.0361C109.949 38.708 110.664 38.5439 111.455 38.5439ZM111.455 40.2051C111.004 40.2051 110.6 40.2959 110.242 40.4775C109.891 40.6533 109.615 40.9082 109.416 41.2422C109.217 41.5703 109.117 41.957 109.117 42.4023C109.117 42.8535 109.217 43.249 109.416 43.5889C109.615 43.9287 109.891 44.1895 110.242 44.3711C110.6 44.5527 111.004 44.6436 111.455 44.6436C111.883 44.6436 112.272 44.5498 112.624 44.3623C112.976 44.1748 113.251 43.9111 113.45 43.5713C113.649 43.2314 113.749 42.8418 113.749 42.4023C113.749 41.9629 113.649 41.5762 113.45 41.2422C113.251 40.9082 112.976 40.6533 112.624 40.4775C112.272 40.2959 111.883 40.2051 111.455 40.2051ZM129.842 37.9287C131.043 37.9287 132.071 38.0312 132.927 38.2363C133.782 38.4414 134.433 38.749 134.878 39.1592C135.323 39.5635 135.546 40.0557 135.546 40.6357C135.546 41.2217 135.323 41.7197 134.878 42.1299C134.433 42.5342 133.782 42.8418 132.927 43.0527C132.071 43.2637 131.043 43.375 129.842 43.3867C128.629 43.375 127.595 43.2637 126.739 43.0527C125.884 42.8418 125.23 42.5342 124.779 42.1299C124.328 41.7197 124.103 41.2217 124.103 40.6357C124.103 40.0557 124.328 39.5635 124.779 39.1592C125.23 38.749 125.884 38.4414 126.739 38.2363C127.595 38.0312 128.629 37.9287 129.842 37.9287ZM129.842 39.3613C129.033 39.3613 128.354 39.4111 127.803 39.5107C127.252 39.6045 126.839 39.748 126.563 39.9414C126.288 40.1348 126.15 40.3662 126.15 40.6357C126.15 40.9346 126.285 41.1777 126.555 41.3652C126.824 41.5527 127.231 41.6934 127.776 41.7871C128.321 41.8809 129.01 41.9277 129.842 41.9277C130.68 41.9277 131.368 41.8809 131.907 41.7871C132.446 41.6934 132.854 41.5498 133.129 41.3564C133.404 41.1631 133.542 40.9229 133.542 40.6357C133.542 40.3662 133.401 40.1377 133.12 39.9502C132.839 39.7568 132.423 39.6104 131.872 39.5107C131.327 39.4111 130.65 39.3613 129.842 39.3613ZM137.075 45.8037H122.608V44.2393H137.075V45.8037ZM135.282 50.752H126.247V52.3428H124.313V49.3721H133.349V48.3086H124.305V46.8672H135.282V50.752ZM135.713 53.4238H124.313V51.9297H135.713V53.4238ZM156.956 47.4561H142.437V45.9092H156.956V47.4561ZM150.821 50.1982H148.888V46.7178H150.821V50.1982ZM155.348 53.2656H144.186V51.666H155.348V53.2656ZM146.128 52.3252H144.186V48.8799H146.128V52.3252ZM146.251 39.9766H153.106V38.1836H155.049V44.6523H144.326V38.1836H146.251V39.9766ZM153.106 43.0967V41.4355H146.251V43.0967H153.106ZM169.665 42.3672H166.193V40.7588H169.665V42.3672ZM163.407 40.0732C163.407 41.1162 163.237 42.0859 162.897 42.9824C162.558 43.873 162.057 44.6523 161.395 45.3203C160.738 45.9883 159.938 46.4951 158.995 46.8408L157.932 45.2588C158.775 44.9775 159.487 44.5791 160.067 44.0635C160.647 43.542 161.081 42.9385 161.368 42.2529C161.661 41.5674 161.808 40.8408 161.808 40.0732V38.5H163.407V40.0732ZM163.768 40.1787C163.768 40.8701 163.908 41.5352 164.189 42.1738C164.477 42.8066 164.898 43.3662 165.455 43.8525C166.018 44.3389 166.694 44.7139 167.485 44.9775L166.448 46.5332C165.546 46.2051 164.775 45.7305 164.137 45.1094C163.498 44.4824 163.015 43.7471 162.687 42.9033C162.364 42.0537 162.203 41.1455 162.203 40.1787V38.5H163.768V40.1787ZM171.309 53.5469H169.357V49.4336H160.48V47.8779H171.309V53.5469ZM171.309 47.1133H169.357V37.6738H171.309V47.1133ZM181.302 41.7695H173.532V40.2051H181.302V41.7695ZM177.435 42.6045C178.108 42.6045 178.706 42.7627 179.228 43.0791C179.755 43.3896 180.168 43.8262 180.467 44.3887C180.766 44.9512 180.915 45.5928 180.915 46.3135C180.915 47.0342 180.766 47.6787 180.467 48.2471C180.168 48.8096 179.755 49.252 179.228 49.5742C178.706 49.8965 178.108 50.0576 177.435 50.0576C176.772 50.0576 176.178 49.8965 175.65 49.5742C175.129 49.252 174.719 48.8066 174.42 48.2383C174.121 47.6699 173.972 47.0283 173.972 46.3135C173.972 45.6045 174.121 44.9658 174.42 44.3975C174.719 43.8291 175.129 43.3896 175.65 43.0791C176.178 42.7627 176.772 42.6045 177.435 42.6045ZM177.435 44.2305C177.101 44.2246 176.802 44.3096 176.538 44.4854C176.274 44.6611 176.069 44.9072 175.923 45.2236C175.776 45.5342 175.703 45.8975 175.703 46.3135C175.703 46.7295 175.776 47.0957 175.923 47.4121C176.075 47.7285 176.28 47.9688 176.538 48.1328C176.802 48.2969 177.101 48.3789 177.435 48.3789C177.774 48.3789 178.076 48.2969 178.34 48.1328C178.604 47.9688 178.812 47.7285 178.964 47.4121C179.116 47.0957 179.192 46.7295 179.192 46.3135C179.192 45.8975 179.116 45.5342 178.964 45.2236C178.812 44.9072 178.604 44.6611 178.34 44.4854C178.076 44.3096 177.774 44.2246 177.435 44.2305ZM187.217 53.5469H185.354V37.6738H187.217V53.5469ZM185.969 45.7861H183.183V44.2129H185.969V45.7861ZM183.807 52.835H181.97V38.0166H183.807V52.835ZM178.401 41.1807H176.477V38.1309H178.401V41.1807ZM207.933 51.6484H193.413V50.0488H207.933V51.6484ZM201.596 50.4707H199.671V46.4805H201.596V50.4707ZM196.964 41.3301H204.32V38.7285H206.263V46.9463H195.004V38.7285H196.964V41.3301ZM204.32 45.3818V42.8857H196.964V45.3818H204.32ZM218.11 44.7578H215.263V43.1494H218.11V44.7578ZM213.54 41.9277C213.54 43.123 213.405 44.2656 213.136 45.3555C212.872 46.4395 212.468 47.4121 211.923 48.2734C211.378 49.1289 210.707 49.7998 209.91 50.2861L208.706 48.8359C209.444 48.3848 210.062 47.793 210.561 47.0605C211.059 46.3281 211.428 45.5254 211.668 44.6523C211.914 43.7793 212.037 42.8711 212.037 41.9277V39.0889H213.54V41.9277ZM213.927 41.8486C213.927 42.7568 214.032 43.624 214.243 44.4502C214.46 45.2705 214.794 46.0293 215.245 46.7266C215.702 47.4238 216.273 47.9893 216.959 48.4229L215.887 49.9346C215.096 49.46 214.445 48.8008 213.936 47.957C213.426 47.1133 213.051 46.1758 212.811 45.1445C212.57 44.1133 212.45 43.0146 212.45 41.8486V39.0889H213.927V41.8486ZM222.672 53.5469H220.791V37.6738H222.672V53.5469ZM219.358 52.7998H217.53V37.9463H219.358V52.7998ZM229.809 50.3477H227.884V45.7949H229.809V50.3477ZM235.688 50.3477H233.72V45.7949H235.688V50.3477ZM239.046 51.6396H224.526V50.0312H239.046V51.6396ZM231.76 38.5264C232.896 38.5264 233.91 38.7021 234.801 39.0537C235.697 39.3994 236.4 39.8916 236.91 40.5303C237.42 41.1689 237.675 41.9014 237.675 42.7275C237.675 43.5596 237.42 44.292 236.91 44.9248C236.406 45.5576 235.706 46.0469 234.81 46.3926C233.919 46.7383 232.902 46.9141 231.76 46.9199C230.617 46.9141 229.598 46.7383 228.701 46.3926C227.811 46.0469 227.11 45.5576 226.601 44.9248C226.097 44.292 225.845 43.5596 225.845 42.7275C225.845 41.9014 226.097 41.1689 226.601 40.5303C227.11 39.8916 227.813 39.3994 228.71 39.0537C229.606 38.7021 230.623 38.5264 231.76 38.5264ZM231.76 40.0908C230.969 40.085 230.271 40.1875 229.668 40.3984C229.07 40.6094 228.602 40.9141 228.262 41.3125C227.928 41.7109 227.761 42.1826 227.761 42.7275C227.761 43.2666 227.928 43.7383 228.262 44.1426C228.602 44.541 229.07 44.8516 229.668 45.0742C230.271 45.291 230.969 45.3994 231.76 45.3994C232.539 45.3994 233.23 45.291 233.834 45.0742C234.438 44.8516 234.906 44.541 235.24 44.1426C235.58 43.7383 235.75 43.2666 235.75 42.7275C235.75 42.1826 235.58 41.7139 235.24 41.3213C234.906 40.9229 234.438 40.6182 233.834 40.4072C233.236 40.1904 232.545 40.085 231.76 40.0908Z" fill="white"/>
<path d="M141.694 94.2986C140.91 95.5484 139.09 95.5484 138.306 94.2986L127.554 77.1561C126.806 75.9642 127.49 74.3934 128.872 74.129L139.624 72.0719C139.873 72.0244 140.128 72.0244 140.376 72.0719L151.128 74.129C152.51 74.3934 153.194 75.9642 152.446 77.1561L141.694 94.2986Z" fill="#3182F6"/>
</g>
<defs>
<filter id="filter0_d_24_49" x="0" y="0" width="288" height="112.236" filterUnits="userSpaceOnUse" color-interpolation-filters="sRGB">
<feFlood flood-opacity="0" result="BackgroundImageFix"/>
<feColorMatrix in="SourceAlpha" type="matrix" values="0 0 0 0 0 0 0 0 0 0 0 0 0 0 0 0 0 0 127 0" result="hardAlpha"/>
<feOffset dx="4" dy="4"/>
<feGaussianBlur stdDeviation="6.5"/>
<feComposite in2="hardAlpha" operator="out"/>
<feColorMatrix type="matrix" values="0 0 0 0 0 0 0 0 0 0 0 0 0 0 0 0 0 0 0.33 0"/>
<feBlend mode="normal" in2="BackgroundImageFix" result="effect1_dropShadow_24_49"/>
<feBlend mode="normal" in="SourceGraphic" in2="effect1_dropShadow_24_49" result="shape"/>
</filter>
</defs>
</svg>
