<svg width="320" height="426" viewBox="0 0 320 426" fill="none" xmlns="http://www.w3.org/2000/svg">
<g filter="url(#filter0_f_21_98)">
<circle cx="160" cy="160" r="151.5" stroke="white" stroke-width="3"/>
</g>
<g filter="url(#filter1_f_21_98)">
<circle cx="160.5" cy="159.5" r="112" stroke="white" stroke-width="3"/>
</g>
<g filter="url(#filter2_f_21_98)">
<circle cx="160" cy="158" r="82" fill="#418FFF" fill-opacity="0.91"/>
</g>
<g opacity="0.9">
<path d="M189.25 187.25L175.112 173.112M182.75 154.75C182.75 169.109 171.109 180.75 156.75 180.75C142.391 180.75 130.75 169.109 130.75 154.75C130.75 140.391 142.391 128.75 156.75 128.75C171.109 128.75 182.75 140.391 182.75 154.75Z" stroke="white" stroke-width="5" stroke-linecap="round" stroke-linejoin="round"/>
</g>
<path d="M142.945 407.66H113.1V404.48H142.945V407.66ZM130.335 413.296H126.36V406.142H130.335V413.296ZM139.639 419.602H116.695V416.313H139.639V419.602ZM120.688 417.668H116.695V410.586H120.688V417.668ZM120.94 392.285H135.032V388.6H139.025V401.896H116.984V388.6H120.94V392.285ZM135.032 398.699V395.284H120.94V398.699H135.032ZM169.069 397.199H161.933V393.893H169.069V397.199ZM156.206 392.484C156.206 394.628 155.857 396.621 155.158 398.464C154.46 400.295 153.43 401.896 152.069 403.27C150.72 404.643 149.076 405.684 147.137 406.395L144.951 403.143C146.685 402.565 148.148 401.746 149.341 400.686C150.533 399.614 151.424 398.374 152.015 396.964C152.617 395.555 152.918 394.062 152.918 392.484V389.25H156.206V392.484ZM156.947 392.701C156.947 394.122 157.236 395.489 157.814 396.802C158.404 398.103 159.271 399.253 160.416 400.252C161.572 401.252 162.963 402.023 164.589 402.565L162.457 405.763C160.602 405.088 159.018 404.113 157.706 402.836C156.393 401.547 155.399 400.036 154.725 398.301C154.062 396.555 153.731 394.688 153.731 392.701V389.25H156.947V392.701ZM172.448 420.18H168.437V411.725H150.19V408.527H172.448V420.18ZM172.448 406.955H168.437V387.552H172.448V406.955ZM193.911 409.647H189.954V403.884H193.911V409.647ZM206.828 405.763H177.091V402.529H206.828V405.763ZM191.923 408.491C194.284 408.491 196.307 408.72 197.994 409.177C199.692 409.623 200.987 410.285 201.878 411.165C202.781 412.044 203.233 413.104 203.233 414.344C203.233 415.573 202.781 416.621 201.878 417.488C200.987 418.355 199.692 419.017 197.994 419.475C196.307 419.933 194.284 420.162 191.923 420.162C189.551 420.162 187.515 419.933 185.817 419.475C184.119 419.017 182.812 418.355 181.896 417.488C180.993 416.621 180.542 415.573 180.542 414.344C180.542 413.104 180.993 412.044 181.896 411.165C182.8 410.285 184.101 409.623 185.799 409.177C187.509 408.72 189.551 408.491 191.923 408.491ZM191.923 411.544C190.333 411.544 188.997 411.652 187.913 411.869C186.841 412.086 186.028 412.399 185.474 412.809C184.92 413.218 184.643 413.73 184.643 414.344C184.643 414.922 184.92 415.422 185.474 415.844C186.028 416.253 186.847 416.572 187.931 416.801C189.015 417.018 190.346 417.126 191.923 417.126C193.477 417.126 194.802 417.018 195.898 416.801C196.994 416.572 197.819 416.253 198.373 415.844C198.927 415.422 199.204 414.922 199.204 414.344C199.204 413.73 198.927 413.218 198.373 412.809C197.819 412.399 197 412.086 195.916 411.869C194.832 411.652 193.501 411.544 191.923 411.544ZM192.772 391.382C192.772 393.044 192.243 394.562 191.183 395.935C190.135 397.296 188.635 398.422 186.684 399.313C184.745 400.204 182.475 400.782 179.873 401.047L178.518 397.886C180.674 397.669 182.559 397.241 184.173 396.603C185.799 395.965 187.045 395.188 187.913 394.272C188.78 393.345 189.213 392.382 189.213 391.382V390.479H192.772V391.382ZM194.651 391.382C194.651 392.382 195.079 393.345 195.934 394.272C196.801 395.188 198.054 395.965 199.692 396.603C201.33 397.241 203.245 397.669 205.437 397.886L204.01 401.047C201.444 400.782 199.18 400.204 197.217 399.313C195.254 398.422 193.736 397.296 192.664 395.935C191.592 394.562 191.056 393.044 191.056 391.382V390.479H194.651V391.382ZM204.154 392.195H179.783V388.997H204.154V392.195Z" fill="#FFFBFB"/>
<circle cx="229.5" cy="26.5" r="13.5" fill="white"/>
<circle cx="130.5" cy="269.5" r="18.5" fill="white"/>
<circle cx="7.5" cy="7.5" r="7.5" transform="matrix(1 0 0 -1 295 111)" fill="white"/>
<circle cx="9.5" cy="142.5" r="9.5" fill="white"/>
<defs>
<filter id="filter0_f_21_98" x="0" y="0" width="320" height="320" filterUnits="userSpaceOnUse" color-interpolation-filters="sRGB">
<feFlood flood-opacity="0" result="BackgroundImageFix"/>
<feBlend mode="normal" in="SourceGraphic" in2="BackgroundImageFix" result="shape"/>
<feGaussianBlur stdDeviation="3.5" result="effect1_foregroundBlur_21_98"/>
</filter>
<filter id="filter1_f_21_98" x="40" y="39" width="241" height="241" filterUnits="userSpaceOnUse" color-interpolation-filters="sRGB">
<feFlood flood-opacity="0" result="BackgroundImageFix"/>
<feBlend mode="normal" in="SourceGraphic" in2="BackgroundImageFix" result="shape"/>
<feGaussianBlur stdDeviation="3.5" result="effect1_foregroundBlur_21_98"/>
</filter>
<filter id="filter2_f_21_98" x="58" y="56" width="204" height="204" filterUnits="userSpaceOnUse" color-interpolation-filters="sRGB">
<feFlood flood-opacity="0" result="BackgroundImageFix"/>
<feBlend mode="normal" in="SourceGraphic" in2="BackgroundImageFix" result="shape"/>
<feGaussianBlur stdDeviation="10" result="effect1_foregroundBlur_21_98"/>
</filter>
</defs>
</svg>
