<svg width="328" height="39" viewBox="0 0 328 39" fill="none" xmlns="http://www.w3.org/2000/svg">
<path d="M3.696 30.824H4.704V33.176H3.696V30.824ZM3.696 27.008H4.5V27.248C4.5 29.144 3.264 30.608 1.44 31.184L0.984 30.404C2.592 29.924 3.696 28.712 3.696 27.248V27.008ZM3.888 27.008H4.692V27.248C4.692 28.652 5.832 29.828 7.428 30.296L6.972 31.064C5.148 30.524 3.888 29.084 3.888 27.248V27.008ZM1.236 26.504H7.2V27.308H1.236V26.504ZM3.696 25.16H4.704V26.852H3.696V25.16ZM8.436 25.076H9.432V35.948H8.436V25.076ZM0.792 33.716L0.648 32.876C2.628 32.876 5.364 32.864 7.728 32.504L7.812 33.236C5.376 33.692 2.724 33.704 0.792 33.716ZM11.6391 33.704H21.4671V34.532H11.6391V33.704ZM16.0071 31.076H16.9911V33.98H16.0071V31.076ZM15.9831 25.808H16.8471V26.648C16.8471 28.964 14.6271 30.752 12.4431 31.208L12.0231 30.38C13.9311 30.032 15.9831 28.436 15.9831 26.648V25.808ZM16.1631 25.808H17.0271V26.648C17.0271 28.448 19.0911 30.032 20.9991 30.38L20.5671 31.208C18.3831 30.752 16.1631 28.964 16.1631 26.648V25.808Z" fill="black"/>
<path d="M308.696 31.824H309.704V34.176H308.696V31.824ZM308.696 28.008H309.5V28.248C309.5 30.144 308.264 31.608 306.44 32.184L305.984 31.404C307.592 30.924 308.696 29.712 308.696 28.248V28.008ZM308.888 28.008H309.692V28.248C309.692 29.652 310.832 30.828 312.428 31.296L311.972 32.064C310.148 31.524 308.888 30.084 308.888 28.248V28.008ZM306.236 27.504H312.2V28.308H306.236V27.504ZM308.696 26.16H309.704V27.852H308.696V26.16ZM313.436 26.076H314.432V36.948H313.436V26.076ZM305.792 34.716L305.648 33.876C307.628 33.876 310.364 33.864 312.728 33.504L312.812 34.236C310.376 34.692 307.724 34.704 305.792 34.716ZM324.883 26.088H325.843V36.936H324.883V26.088ZM323.047 30.432H325.135V31.26H323.047V30.432ZM322.423 26.328H323.359V36.384H322.423V26.328ZM317.023 33.432H317.731C319.315 33.432 320.395 33.372 321.655 33.108L321.751 33.936C320.455 34.212 319.363 34.26 317.731 34.26H317.023V33.432ZM317.023 27.408H321.055V28.224H318.007V33.804H317.023V27.408Z" fill="black"/>
<rect width="328" height="18" rx="9" fill="url(#paint0_linear_133_27)"/>
<defs>
<linearGradient id="paint0_linear_133_27" x1="0" y1="9" x2="328" y2="9" gradientUnits="userSpaceOnUse">
<stop stop-color="#AAFF99"/>
<stop offset="1" stop-color="#FF7070"/>
</linearGradient>
</defs>
</svg>
